/* XPM */
static char *audio_00[] = {
/* columns rows colors chars-per-pixel */
"24 24 2 1 ",
"  c #707880",
". c None",
/* pixels */
"........................",
"........................",
"..  ..............  ....",
"..   ...........    ....",
"...   ........   .. ....",
"....   ......  .... ....",
".....   ...   ..... ....",
"....        ....... ....",
".... ..   ......... ....",
".... ...   ........ ....",
".... ....   ....... ....",
".... .....   ...... ....",
".... ......   ..... ....",
".... .......   .... ....",
".... ........   ... ....",
".... .........   .. ....",
"....        ...   . ....",
"...........   ..    ....",
".............  ..   ....",
"..............   .   ...",
"................      ..",
"..................    ..",
"........................",
"........................"
};
